<?xml version="1.0" encoding="UTF-8" standalone="no"?>
<svg
   width="1280"
   height="640"
   viewBox="0 0 1280 640"
   version="1.1"
   id="svg64"
   sodipodi:docname="banner.svg"
   inkscape:version="1.2.2 (b0a8486541, 2022-12-01)"
   inkscape:export-filename="banner.png"
   inkscape:export-xdpi="96"
   inkscape:export-ydpi="96"
   xmlns:inkscape="http://www.inkscape.org/namespaces/inkscape"
   xmlns:sodipodi="http://sodipodi.sourceforge.net/DTD/sodipodi-0.dtd"
   xmlns="http://www.w3.org/2000/svg"
   xmlns:svg="http://www.w3.org/2000/svg">
  <sodipodi:namedview
     id="namedview66"
     pagecolor="#ffffff"
     bordercolor="#666666"
     borderopacity="1.0"
     inkscape:showpageshadow="2"
     inkscape:pageopacity="0.0"
     inkscape:pagecheckerboard="0"
     inkscape:deskcolor="#d1d1d1"
     showgrid="false"
     inkscape:zoom="1.3"
     inkscape:cx="600.38462"
     inkscape:cy="399.61538"
     inkscape:window-width="3440"
     inkscape:window-height="1404"
     inkscape:window-x="0"
     inkscape:window-y="36"
     inkscape:window-maximized="1"
     inkscape:current-layer="svg64" />
  <defs
     id="defs12">
    <linearGradient
       id="g1"
       x1="84.832622"
       y1="82.762973"
       x2="171.80388"
       y2="169.73423"
       gradientTransform="matrix(0.98359351,0,0,0.47563552,402.58958,-119.6767)"
       gradientUnits="userSpaceOnUse">
      <stop
         offset="0%"
         stop-color="#d4fcf0"
         id="stop2" />
      <stop
         offset="100%"
         stop-color="#a8e6cf"
         id="stop4" />
    </linearGradient>
    <linearGradient
       id="g2"
       x1="199.33333"
       y1="103.5"
       x2="307.33333"
       y2="211.5"
       gradientTransform="matrix(0.98196536,0,0,0.40366937,336.83908,318.66179)"
       gradientUnits="userSpaceOnUse">
      <stop
         offset="0%"
         stop-color="#e0c3fc"
         id="stop7" />
      <stop
         offset="100%"
         stop-color="#c2a5f5"
         id="stop9" />
    </linearGradient>
  </defs>
  <!-- Background -->
  <rect
     width="1280.8015"
     height="640.40045"
     fill="#f5f7fb"
     id="rect14"
     x="0"
     y="0"
     style="stroke-width:1" />
  <!-- Title -->
  <!-- Rectangles -->
  <!-- Cube -->
  <!-- Long box -->
  <!-- LONG THIN CYLINDERS -->
  <!-- T tetromino -->
  <!-- L tetromino -->
  <!-- CORRECT S tetromino -->
  <g
     id="g244"
     transform="matrix(1.734,0,0,1.734,-450.24631,46.7)">
    <text
       x="627.14551"
       y="165"
       text-anchor="middle"
       font-family="Inter, 'Segoe UI', Helvetica, Arial, sans-serif"
       font-size="56px"
       id="text20"><tspan
         fill="#1f2937"
         id="tspan16">Packing</tspan><tspan
         fill="#3b82f6"
         id="tspan18">Solver</tspan></text>
    <rect
       x="486.7316"
       y="-79.644485"
       width="84.141998"
       height="40.032211"
       fill="url(#g1)"
       stroke="#2d2d2d"
       stroke-width="2"
       transform="matrix(0.98715744,0.15975039,-0.13136188,0.99133448,0,0)"
       id="rect22"
       style="fill:url(#g1)" />
    <rect
       x="533.23218"
       y="361.04712"
       width="104.74297"
       height="42.385284"
       fill="url(#g2)"
       stroke="#2d2d2d"
       stroke-width="2"
       transform="matrix(0.97374077,-0.22765962,0.19988484,0.9798194,0,0)"
       id="rect24"
       style="fill:#bec1fc"
       inkscape:transform-center-x="22.414853"
       inkscape:transform-center-y="-6.0235558" />
    <g
       stroke="#2d2d2d"
       stroke-width="3"
       id="g32"
       transform="matrix(0.48172717,0,0,0.45949403,34.67286,4.8056739)">
      <rect
         x="620"
         y="60"
         width="110"
         height="110"
         fill="#cfd8e3"
         id="rect26"
         style="stroke-width:3" />
      <polygon
         points="620,60 660,30 770,30 730,60 "
         fill="#e3eaf0"
         id="polygon28"
         style="stroke-width:3" />
      <polygon
         points="730,60 770,30 770,140 730,170 "
         fill="#b0bcc8"
         id="polygon30"
         style="stroke-width:3" />
    </g>
    <g
       stroke="#2d2d2d"
       stroke-width="3"
       id="g40"
       transform="matrix(0.60000089,0.17745276,0,0.64087609,317.86418,-146.60236)"
       inkscape:transform-center-x="28.593738"
       inkscape:transform-center-y="-22.027342">
      <rect
         x="800"
         y="70"
         width="220"
         height="70"
         fill="#fcd5ce"
         id="rect34"
         style="stroke-width:3" />
      <polygon
         points="1060,40 1020,70 800,70 840,40 "
         fill="#f8cdda"
         id="polygon36"
         style="stroke-width:3" />
      <polygon
         points="1060,110 1020,140 1020,70 1060,40 "
         fill="#e9aebc"
         id="polygon38"
         style="stroke-width:3" />
    </g>
    <g
       transform="rotate(-25,245.60644,-237.15521)"
       stroke="#2d2d2d"
       stroke-width="2"
       id="g48">
      <ellipse
         cx="150"
         cy="260"
         rx="6"
         ry="3"
         fill="#fde68a"
         id="ellipse42" />
      <rect
         x="144"
         y="120"
         width="12"
         height="140"
         fill="#fde68a"
         id="rect44" />
      <ellipse
         cx="150"
         cy="120"
         rx="6"
         ry="3"
         fill="#fde68a"
         id="ellipse46" />
    </g>
    <g
       transform="rotate(25,557.11114,-240.75389)"
       stroke="#2d2d2d"
       stroke-width="2"
       id="g56">
      <ellipse
         cx="1020"
         cy="130"
         rx="6"
         ry="3"
         fill="#a0e7e5"
         id="ellipse50" />
      <rect
         x="1014"
         y="-10"
         width="12"
         height="140"
         fill="#a0e7e5"
         id="rect52" />
      <ellipse
         cx="1020"
         cy="-10"
         rx="6"
         ry="3"
         fill="#a0e7e5"
         id="ellipse54" />
    </g>
    <path
       d="m 637.01415,48.073372 73.86058,-13.023613 4.34121,24.620194 -24.6202,4.341204 4.34121,24.620194 -24.62019,4.341205 -4.34121,-24.620194 -24.62019,4.341204 z"
       fill="#e9c9ff"
       stroke="#2d2d2d"
       stroke-width="2"
       id="path58" />
    <path
       d="m 461.15409,224.78546 -19.41143,72.44443 48.29629,12.94095 6.47048,-24.14814 -24.14815,-6.47048 12.94096,-48.29629 z"
       fill="#b5ead7"
       stroke="#2d2d2d"
       stroke-width="2"
       id="path60" />
    <path
       d="m 894.83422,279.59805 24.45369,-5.1978 -5.19779,-24.45369 24.45369,-5.19779 5.19779,24.45369 24.45374,-5.19779 5.1978,24.45369 -24.45374,5.19779 5.19779,24.45369 -24.45369,5.19779 -5.19779,-24.45369 -24.45369,5.1978 z"
       fill="#caffbf"
       stroke="#2d2d2d"
       stroke-width="2"
       id="path62" />
  </g>
</svg>
